<svg xmlns="http://www.w3.org/2000/svg" viewBox="0 0 592.91 591.94"><defs><style>.cls-1{fill:#ed3f00;}.cls-2{fill:none;}.cls-3{fill:#787878;}.cls-4{fill:#b4b4b4;}.cls-5{fill:#a0a0a0;}.cls-6{fill:#ed3f00;}</style></defs><g id="Layer_2" data-name="Layer 2"><g id="svg2848"><path class="cls-1" d="M288.47,265.3q-13.28,0-19.15-2.27t-8-5.69a12.3,12.3,0,0,1-1.9-7.21,22.51,22.51,0,0,0-.76-7.2c-.63-2.28-2.27-4.17-4.93-5.69S246.25,235,239.18,235H186.09q-11.37,0-17.63.57t-9.1,3.41c-1.9,1.89-3,4.87-3.22,8.91s-.38,9.86-.38,17.44.12,13.46.38,17.63,1.32,7.21,3.22,9.1,4.93,3,9.1,3.23,10,.38,17.63.38h49.3q32.6,0,51,1.89t27.3,10.8q8.91,8.93,10.81,27.31t1.89,51q0,32.63-1.89,51t-10.81,27.3q-8.91,8.93-27.3,10.81t-51,1.89h-49.3q-22.74,0-39.81-.75T117.84,472q-11.37-4.17-17.06-13.46t-5.69-26.35q0-15.56,1-24.65t4.17-13.65A14.74,14.74,0,0,1,109.5,388a77.4,77.4,0,0,1,15.92-1.33q13.28,0,19.16,2.28t8,5.69a15.11,15.11,0,0,1,2.27,7.2,22.79,22.79,0,0,0,1.52,7.2c.88,2.28,2.9,4.17,6.07,5.69s8.53,2.28,16.11,2.28h15.17q17.06,0,26.35-.38t13.46-3.23q4.17-2.83,4.93-9.09a157.46,157.46,0,0,0,.76-17.64,152.11,152.11,0,0,0-.76-17.44q-.76-6.06-4.93-8.91T220,356.87q-9.3-.57-26.35-.57h-7.59q-31.47,0-49.48-2.46t-27.3-11.76q-9.3-9.29-11.76-27.3T95.09,265.3q0-32.61,1.9-51t10.8-27.3q8.91-8.91,27.31-10.81t51-1.89h45.5q22.75,0,39.82.76T299.84,180q11.39,4.17,17.07,13.46t5.68,26.35a210.8,210.8,0,0,1-1.13,24.64q-1.14,9.1-4.55,13.65T306.67,264A98.88,98.88,0,0,1,288.47,265.3Z"/><path class="cls-2" d="M88.46,364.11c-.21-.19-.41-.39-.61-.59a61.54,61.54,0,0,1-5.11-5.81c1,2.73,2,5.46,3.07,8.17C86.67,365.27,87.55,364.67,88.46,364.11Z"/><path class="cls-2" d="M472.39,450.93c-.31-5-.54-10.82-.67-17.6q-15.09,10.83-30.85,21-.12,2.52-.27,4.77a59.83,59.83,0,0,1-5.5,22.16q19.39-11.81,37.82-24.62C472.7,454.78,472.52,452.89,472.39,450.93Z"/><path class="cls-3" d="M141.82,43.35a294.19,294.19,0,0,0-78,69.14,268.31,268.31,0,0,0,34.91-4.68A319.13,319.13,0,0,1,141.82,43.35Z"/><path class="cls-4" d="M242.71,27.53A267.39,267.39,0,0,0,264,1.7a294,294,0,0,0-95.56,27.23A319.21,319.21,0,0,1,242.71,27.53Z"/><path class="cls-3" d="M169.36,82.92,155.49,57.33a298.84,298.84,0,0,0-31.13,44A272.46,272.46,0,0,0,169.36,82.92Z"/><path class="cls-5" d="M186.59,73.3a270.52,270.52,0,0,0,37.28-27.49,299.69,299.69,0,0,0-51,2.18Z"/><path class="cls-4" d="M424.68,29.43A297.59,297.59,0,0,0,289,.08a290,290,0,0,1-22.72,30.68A318.76,318.76,0,0,1,393.36,82.94,424.15,424.15,0,0,0,424.68,29.43Z"/><path class="cls-3" d="M68.39,200.87A320.8,320.8,0,0,1,88.7,129.63a289.36,289.36,0,0,1-39.65,3.19A297.47,297.47,0,0,0,1.86,263.3a423.76,423.76,0,0,0,62.67,1.88,315.2,315.2,0,0,1,2.07-51.8c.07-.75.14-1.48.22-2.2A101.59,101.59,0,0,1,68.39,200.87Z"/><path class="cls-5" d="M272.75,144.75c14.66.66,26.94,2.87,37.54,6.76a67.48,67.48,0,0,1,15.27,7.91,419.86,419.86,0,0,0,56.29-60.57A298.84,298.84,0,0,0,250.26,48.06,288.67,288.67,0,0,1,196,90.6L224.87,144h6.72C247.14,144,261,144.23,272.75,144.75Z"/><path class="cls-3" d="M186.09,144h16.34l-23.67-43.7a289.83,289.83,0,0,1-66.84,24.85A302.13,302.13,0,0,0,99.7,155.54c9-5,19.83-8.23,32.27-9.52C145.43,144.64,163.12,144,186.09,144Z"/><path class="cls-4" d="M502.33,191.88c.53-10.49,3.37-19.61,8.43-27,4.2-6.15,12.11-14.24,26.18-18.08a76.51,76.51,0,0,1,13.3-2.26A294.06,294.06,0,0,0,442.14,38.63,443.79,443.79,0,0,1,409.19,94.7a312.33,312.33,0,0,1,80.67,96.2q6.43,11.88,11.77,24c.1-.11.18-.23.28-.34v-2.4C501.91,204,502,197.37,502.33,191.88Z"/><path class="cls-3" d="M75.48,376.27a44.12,44.12,0,0,1,10.33-10.39c-1.06-2.71-2.09-5.44-3.07-8.17-8-10.23-13.1-23.25-15.24-38.81a325.15,325.15,0,0,1-2.48-34,441.94,441.94,0,0,1-64.72-2A294.18,294.18,0,0,0,32.83,431.37q15.95.36,31.93-.15a267.2,267.2,0,0,1,1.12-26.9C67.06,392.9,70.2,383.71,75.48,376.27Z"/><path class="cls-5" d="M471.57,235v14.1q8.07-8.44,15.75-17.17a295.33,295.33,0,0,0-14.81-31.6c-.71-1.31-1.44-2.6-2.17-3.9.17,1.57.31,3.17.42,4.81C471.31,210.07,471.57,221.1,471.57,235Z"/><path class="cls-5" d="M428.7,146.78a60.89,60.89,0,0,1,9.07,2.78,293.7,293.7,0,0,0-40.16-39,440.33,440.33,0,0,1-30.11,35.55A156.11,156.11,0,0,1,395.74,144C409.45,144,420.23,144.89,428.7,146.78Z"/><path class="cls-3" d="M187.22,265.3h0Z"/><path class="cls-3" d="M144.93,507.18c-14.66-.65-26.94-2.86-37.56-6.76a62.75,62.75,0,0,1-32.47-26.1,67,67,0,0,1-8.59-23.46q-11.16.38-22.31.34A294.32,294.32,0,0,0,165.41,561.51a726.54,726.54,0,0,0,90.07-21.17A317.55,317.55,0,0,1,197.26,508H186.09C170.44,508,156.59,507.7,144.93,507.18Z"/><path class="cls-5" d="M471.57,417V401.8a127.87,127.87,0,0,0-.58-13.23,14,14,0,0,0-2.18.93c-9.43,5.08-16.84,9.23-22,12.33a46.52,46.52,0,0,0-5.2,3.55,67.9,67.9,0,0,0-.36,7.79v22.76c0,7.12-.12,13.19-.37,18.39q15.78-10.14,30.85-21C471.62,428.4,471.57,423,471.57,417Z"/><path class="cls-3" d="M331.15,490c-10.58,8.8-24.57,14.15-41.67,15.91-13.35,1.38-31.05,2.06-54.09,2.06h-1.55a298.35,298.35,0,0,0,51.07,22.73q33.32-11.67,65.94-26.82A44.59,44.59,0,0,1,331.15,490Z"/><path class="cls-4" d="M450,548.69a295.26,295.26,0,0,0,57.42-45.56,50.63,50.63,0,0,1-18.3-11.08A320.83,320.83,0,0,1,450,548.69Z"/><path class="cls-3" d="M285.42,551.32a746.83,746.83,0,0,1-87.25,23.93,295.25,295.25,0,0,0,225.58-12.34A320.18,320.18,0,0,1,285.42,551.32Z"/><path class="cls-5" d="M435.1,481.25a47.34,47.34,0,0,1-2.45,4.49,43.38,43.38,0,0,1-14.77,14.43l18.59,34.32a299.84,299.84,0,0,0,40.39-61.23,71.12,71.12,0,0,1-3.94-16.63Q454.49,469.43,435.1,481.25Z"/><path class="cls-3" d="M317.4,539.68a300,300,0,0,0,101.75,4.26L399,506.71a97.79,97.79,0,0,1-11.29,1.1A754.1,754.1,0,0,1,317.4,539.68Z"/><path class="cls-6" d="M592.91,265.3A80.83,80.83,0,0,1,591.58,281a31.15,31.15,0,0,1-5.69,12.51A57,57,0,0,1,573,305.49a245.48,245.48,0,0,1-22.94,14Q544,323.32,544,326c0,2,1.77,4,5.31,6.06q14.79,8.36,23.51,14.41t13.08,12.13a32.78,32.78,0,0,1,5.69,12.52,77.89,77.89,0,0,1,1.33,15.54q0,31.49-.76,49.49t-4.93,27.29q-4.17,9.3-13.46,11.76t-26.35,2.46q-17.07,0-26.36-2.08t-13.45-8.34q-4.19-6.27-4.93-18.2t-.76-32V401.8q0-25.4-5.69-35.07t-19-9.67a54.43,54.43,0,0,0-10.62,1.33,45,45,0,0,0-12.13,4.35q-14.79,8-23.32,13.09a59.7,59.7,0,0,0-13.08,10.05,23.37,23.37,0,0,0-5.87,11.18,79.66,79.66,0,0,0-1.33,16.11v22.76q0,12.88-.57,21t-3.41,12.7a14.69,14.69,0,0,1-8.91,6.26q-6.07,1.69-17.45,1.7t-17.63-1.7q-6.26-1.71-9.1-6.26T350.62,457q-.39-8.16-.38-21v-49.3a77.89,77.89,0,0,1,1.33-15.54,32.76,32.76,0,0,1,5.68-12.52q4.37-6,13.09-12.13T393.84,332c3.29-1.51,4.93-3.41,4.93-5.68s-1.89-4.55-5.68-6.83a244.16,244.16,0,0,1-22.94-14,57.08,57.08,0,0,1-12.9-11.94A31.12,31.12,0,0,1,351.57,281a80.83,80.83,0,0,1-1.33-15.74q0-31.08.76-49.29t4.93-27.49q4.17-9.28,13.46-11.76t26.35-2.46q17.07,0,26.35,2.08c6.19,1.4,10.68,4.17,13.46,8.35s4.42,10.3,4.93,18.39.76,18.71.76,31.85v15.16a138.68,138.68,0,0,0,1.33,21.24,38,38,0,0,0,4.36,13.46,16.92,16.92,0,0,0,7.77,7.2,28.69,28.69,0,0,0,11.57,2.09A63.29,63.29,0,0,0,476.88,293a42.91,42.91,0,0,0,11.76-3.79q14.79-7.2,23.5-12.33t13.28-10.23a23.16,23.16,0,0,0,5.68-11.57,96.28,96.28,0,0,0,1.14-16.3V212.21q0-11.37.38-18.76t3.22-11.57c1.9-2.78,4.93-4.73,9.1-5.88s10-1.7,17.64-1.7S576,174.87,580,176s7,3.1,8.91,5.88,3,6.64,3.41,11.57.57,11.18.57,18.76Z"/><path class="cls-1" d="M588.93,181.88c-1.9-2.78-4.87-4.73-8.91-5.88s-9.86-1.7-17.44-1.7-13.47.57-17.64,1.7-7.2,3.1-9.1,5.88-3,6.64-3.22,11.57-.38,11.18-.38,18.76v26.55a96.28,96.28,0,0,1-1.14,16.3,23.16,23.16,0,0,1-5.68,11.57q-4.56,5.12-13.28,10.23t-23.5,12.33A42.91,42.91,0,0,1,476.88,293a63.29,63.29,0,0,1-10.61,1.14A28.69,28.69,0,0,1,454.7,292a16.92,16.92,0,0,1-7.77-7.2,38,38,0,0,1-4.36-13.46,138.68,138.68,0,0,1-1.33-21.24V235q0-19.71-.76-31.85t-4.93-18.39c-2.78-4.18-7.27-6.95-13.46-8.35s-15-2.08-26.35-2.08-20.16.82-26.35,2.46-10.68,5.57-13.46,11.76S351.5,203.87,351,216s-.76,28.57-.76,49.29A80.83,80.83,0,0,0,351.57,281a31.12,31.12,0,0,0,5.68,12.51,57.08,57.08,0,0,0,12.9,11.94,244.16,244.16,0,0,0,22.94,14q5.69,3.42,5.68,6.83c0,2.27-1.64,4.17-4.93,5.68q-14.77,8.36-23.5,14.41t-13.09,12.13a32.76,32.76,0,0,0-5.68,12.52,77.89,77.89,0,0,0-1.33,15.54v49.3q0,12.88.38,21t3.22,12.7q2.85,4.56,9.1,6.26t17.63,1.7q11.39,0,17.45-1.7a14.69,14.69,0,0,0,8.91-6.26q2.83-4.55,3.41-12.7t.57-21V413.17a79.66,79.66,0,0,1,1.33-16.11,23.37,23.37,0,0,1,5.87-11.18,59.7,59.7,0,0,1,13.08-10.05q8.54-5.13,23.32-13.09a45,45,0,0,1,12.13-4.35,54.43,54.43,0,0,1,10.62-1.33q13.28,0,19,9.67t5.69,35.07V417q0,20.1.76,32t4.93,18.2q4.15,6.26,13.45,8.34t26.36,2.08q17.05,0,26.35-2.46t13.46-11.76q4.17-9.29,4.93-27.29t.76-49.49a77.89,77.89,0,0,0-1.33-15.54,32.78,32.78,0,0,0-5.69-12.52q-4.36-6-13.08-12.13T549.3,332c-3.54-2-5.31-4-5.31-6.06q0-2.66,6.07-6.45a245.48,245.48,0,0,0,22.94-14,57,57,0,0,0,12.89-11.94A31.15,31.15,0,0,0,591.58,281a80.83,80.83,0,0,0,1.33-15.74V212.21q0-11.37-.57-18.76T588.93,181.88Z"/></g></g></svg>
